name analog
datacolumns 19
datarows 57
range 0.499 0.527
endheader
time	ground_force_vx	ground_force_vy	ground_force_vz	ground_force_px	ground_force_py	ground_force_pz	l_ground_force_vx	l_ground_force_vy	l_ground_force_vz	l_ground_force_px	l_ground_force_py	l_ground_force_pz	ground_torque_x	ground_torque_y	ground_torque_z	l_ground_torque_x	l_ground_torque_y	l_ground_torque_z
0.499	-0.0	-0.0	-0.0	-0.0	-0.0	-0.0	-20.22777557373047	-7.414748668670654	-743.0317993164062	-0.0	-0.0	-0.0	-0.0	-0.0	-0.0	255965.90625	-5350.8701171875	-8738.357421875
0.4995	-0.0	-0.0	-0.0	-0.0	-0.0	-0.0	-20.22698974609375	-7.245158672332764	-741.5906982421875	-0.0	-0.0	-0.0	-0.0	-0.0	-0.0	255296.28125	-5293.630859375	-8915.4365234375
0.5	-0.0	-0.0	-0.0	-0.0	-0.0	-0.0	-20.402490615844727	-7.243364334106445	-741.2567138671875	-0.0	-0.0	-0.0	-0.0	-0.0	-0.0	254896.421875	-5072.06982421875	-8796.57421875
0.5005000000000001	-0.0	-0.0	-0.0	-0.0	-0.0	-0.0	-19.776273727416992	-6.8952956199646	-738.4884033203125	-0.0	-0.0	-0.0	-0.0	-0.0	-0.0	254743.96875	-5099.13623046875	-8646.6640625
0.501	-0.0	-0.0	-0.0	-0.0	-0.0	-0.0	-18.98188591003418	-6.979625701904297	-737.4257202148438	-0.0	-0.0	-0.0	-0.0	-0.0	-0.0	254285.890625	-5340.84521484375	-8352.7265625
0.5015000000000001	-0.0	-0.0	-0.0	-0.0	-0.0	-0.0	-18.184553146362305	-6.884477615356445	-739.1539306640625	-0.0	-0.0	-0.0	-0.0	-0.0	-0.0	254278.484375	-4891.359375	-8112.9658203125
0.502	-0.0	-0.0	-0.0	-0.0	-0.0	-0.0	-16.677627563476562	-7.150379657745361	-737.7670288085938	-0.0	-0.0	-0.0	-0.0	-0.0	-0.0	253372.421875	-5157.513671875	-7935.2109375
0.5025000000000001	-0.0	-0.0	-0.0	-0.0	-0.0	-0.0	-16.58762550354004	-7.3294148445129395	-736.3505859375	-0.0	-0.0	-0.0	-0.0	-0.0	-0.0	252919.328125	-5211.99365234375	-7846.26025390625
0.503	-0.0	-0.0	-0.0	-0.0	-0.0	-0.0	-16.853710174560547	-7.512674331665039	-733.5675048828125	-0.0	-0.0	-0.0	-0.0	-0.0	-0.0	251805.296875	-5051.236328125	-7817.77490234375
0.5035000000000001	-0.0	-0.0	-0.0	-0.0	-0.0	-0.0	-16.76351547241211	-8.219535827636719	-729.3832397460938	-0.0	-0.0	-0.0	-0.0	-0.0	-0.0	250783.1875	-4928.23828125	-7964.4443359375
0.504	-0.0	-0.0	-0.0	-0.0	-0.0	-0.0	-16.590375900268555	-8.835073471069336	-724.5240478515625	-0.0	-0.0	-0.0	-0.0	-0.0	-0.0	248966.40625	-4916.9658203125	-7991.71826171875
0.5045000000000001	-0.0	-0.0	-0.0	-0.0	-0.0	-0.0	-17.02943229675293	-9.27528953552246	-719.974609375	-0.0	-0.0	-0.0	-0.0	-0.0	-0.0	247267.78125	-4486.7861328125	-8022.7421875
0.505	-0.0	-0.0	-0.0	-0.0	-0.0	-0.0	-16.68399429321289	-9.7122163772583	-714.7509765625	-0.0	-0.0	-0.0	-0.0	-0.0	-0.0	245254.65625	-4692.54443359375	-7992.3623046875
0.5055000000000001	-0.0	-0.0	-0.0	-0.0	-0.0	-0.0	-16.592195510864258	-9.803707122802734	-710.180908203125	-0.0	-0.0	-0.0	-0.0	-0.0	-0.0	243659.0	-4350.22021484375	-8021.9365234375
0.506	-0.0	-0.0	-0.0	-0.0	-0.0	-0.0	-16.677627563476562	-9.79859447479248	-708.0996704101562	-0.0	-0.0	-0.0	-0.0	-0.0	-0.0	242467.578125	-4523.5400390625	-7993.404296875
0.5065000000000001	-0.0	-0.0	-0.0	-0.0	-0.0	-0.0	-15.448076248168944	-9.45394802093506	-703.554443359375	-0.0	-0.0	-0.0	-0.0	-0.0	-0.0	241452.34375	-4637.0302734375	-7816.80712890625
0.507	-0.0	-0.0	-0.0	-0.0	-0.0	-0.0	-14.821978569030762	-9.71538543701172	-701.7733154296875	-0.0	-0.0	-0.0	-0.0	-0.0	-0.0	240545.1875	-4771.57080078125	-7663.89794921875
0.5075000000000001	-0.0	-0.0	-0.0	-0.0	-0.0	-0.0	-14.014411926269531	-9.801823616027832	-699.3507080078125	-0.0	-0.0	-0.0	-0.0	-0.0	-0.0	240086.0625	-4957.7392578125	-7250.48193359375
0.508	-0.0	-0.0	-0.0	-0.0	-0.0	-0.0	-12.87087059020996	-9.544570922851562	-697.6510620117188	-0.0	-0.0	-0.0	-0.0	-0.0	-0.0	239350.234375	-5073.21533203125	-6952.96337890625
0.5085000000000001	-0.0	-0.0	-0.0	-0.0	-0.0	-0.0	-11.719820976257324	-9.6310453414917	-698.6444702148438	-0.0	-0.0	-0.0	-0.0	-0.0	-0.0	239351.359375	-5411.306640625	-6653.5205078125
0.509	-0.0	-0.0	-0.0	-0.0	-0.0	-0.0	-11.26834201812744	-10.409582138061523	-697.9703979492188	-0.0	-0.0	-0.0	-0.0	-0.0	-0.0	239125.25	-5332.2744140625	-6417.39794921875
0.5095000000000001	-0.0	-0.0	-0.0	-0.0	-0.0	-0.0	-10.911426544189451	-10.161214828491213	-696.5741577148438	-0.0	-0.0	-0.0	-0.0	-0.0	-0.0	238520.96875	-5318.45361328125	-6180.46142578125
0.51	-0.0	-0.0	-0.0	-0.0	-0.0	-0.0	-10.294835090637209	-10.671645164489746	-696.8289794921875	-0.0	-0.0	-0.0	-0.0	-0.0	-0.0	238032.640625	-5395.078125	-5944.30615234375
0.5105000000000001	-0.0	-0.0	-0.0	-0.0	-0.0	-0.0	-10.117533683776855	-10.85908317565918	-693.4506225585938	-0.0	-0.0	-0.0	-0.0	-0.0	-0.0	237897.171875	-5560.6484375	-6027.98828125
0.511	-0.0	-0.0	-0.0	-0.0	-0.0	-0.0	-9.84689712524414	-10.607762336730955	-692.1090698242188	-0.0	-0.0	-0.0	-0.0	-0.0	-0.0	236964.90625	-5376.0322265625	-5796.49267578125
0.5115000000000001	-0.0	-0.0	-0.0	-0.0	-0.0	-0.0	-10.019574165344238	-10.515005111694336	-691.6693115234375	-0.0	-0.0	-0.0	-0.0	-0.0	-0.0	236751.0625	-5488.177734375	-5826.32861328125
0.512	-0.0	-0.0	-0.0	-0.0	-0.0	-0.0	-9.84931755065918	-10.259771347045898	-690.9425048828125	-0.0	-0.0	-0.0	-0.0	-0.0	-0.0	235958.5625	-5367.17724609375	-5853.42626953125
0.5125	-0.0	-0.0	-0.0	-0.0	-0.0	-0.0	-10.364280700683594	-10.333637237548828	-688.5074462890625	-0.0	-0.0	-0.0	-0.0	-0.0	-0.0	235753.890625	-5176.47509765625	-6031.7958984375
0.513	-0.0	-0.0	-0.0	-0.0	-0.0	-0.0	-10.379161834716797	-9.639771461486816	-689.2052612304688	-0.0	-0.0	-0.0	-0.0	-0.0	-0.0	235389.796875	-5119.18603515625	-6001.96630859375
0.5135	-0.0	-0.0	-0.0	-0.0	-0.0	-0.0	-10.196539878845217	-10.320693016052246	-687.4999389648438	-0.0	-0.0	-0.0	-0.0	-0.0	-0.0	235552.5625	-5277.373046875	-6145.98193359375
0.514	-0.0	-0.0	-0.0	-0.0	-0.0	-0.0	-9.938281059265137	-10.071332931518556	-690.6114501953125	-0.0	-0.0	-0.0	-0.0	-0.0	-0.0	235803.0625	-5385.70458984375	-6028.7451171875
0.5145	-0.0	-0.0	-0.0	-0.0	-0.0	-0.0	-9.497519493103027	-9.98851203918457	-693.05517578125	-0.0	-0.0	-0.0	-0.0	-0.0	-0.0	236720.375	-5637.43408203125	-5998.68701171875
0.515	-0.0	-0.0	-0.0	-0.0	-0.0	-0.0	-8.962569236755371	-10.237011909484863	-695.4990844726562	-0.0	-0.0	-0.0	-0.0	-0.0	-0.0	237738.390625	-5727.12939453125	-5738.7822265625
0.5155	-0.0	-0.0	-0.0	-0.0	-0.0	-0.0	-8.87678337097168	-10.94904899597168	-699.3282470703125	-0.0	-0.0	-0.0	-0.0	-0.0	-0.0	239286.296875	-5954.0546875	-5760.10205078125
0.516	-0.0	-0.0	-0.0	-0.0	-0.0	-0.0	-8.779455184936523	-10.86066722869873	-702.8536376953125	-0.0	-0.0	-0.0	-0.0	-0.0	-0.0	241255.65625	-6007.8203125	-5587.7900390625
0.5165	-0.0	-0.0	-0.0	-0.0	-0.0	-0.0	-9.12833023071289	-10.784087181091309	-709.7669677734375	-0.0	-0.0	-0.0	-0.0	-0.0	-0.0	242457.59375	-6197.931640625	-5790.74951171875
0.517	-0.0	-0.0	-0.0	-0.0	-0.0	-0.0	-9.739991188049316	-10.778264999389648	-714.3045654296875	-0.0	-0.0	-0.0	-0.0	-0.0	-0.0	244359.140625	-6228.56494140625	-6146.06494140625
0.5175	-0.0	-0.0	-0.0	-0.0	-0.0	-0.0	-10.369919776916504	-10.875836372375488	-719.8779296875	-0.0	-0.0	-0.0	-0.0	-0.0	-0.0	245834.359375	-6316.05029296875	-6207.861328125
0.518	-0.0	-0.0	-0.0	-0.0	-0.0	-0.0	-11.44053840637207	-11.384079933166504	-724.4400024414062	-0.0	-0.0	-0.0	-0.0	-0.0	-0.0	247902.75	-6375.9697265625	-6570.998046875
0.5185	-0.0	-0.0	-0.0	-0.0	-0.0	-0.0	-12.498581886291504	-10.614596366882324	-729.3270874023438	-0.0	-0.0	-0.0	-0.0	-0.0	-0.0	249719.078125	-6086.18994140625	-7096.99365234375
0.519	-0.0	-0.0	-0.0	-0.0	-0.0	-0.0	-13.753432273864746	-10.41546630859375	-732.1837158203125	-0.0	-0.0	-0.0	-0.0	-0.0	-0.0	251490.0	-6042.72119140625	-7573.486328125
0.5195	-0.0	-0.0	-0.0	-0.0	-0.0	-0.0	-15.234923362731934	-9.82029914855957	-739.4900512695312	-0.0	-0.0	-0.0	-0.0	-0.0	-0.0	253386.515625	-5957.01220703125	-7935.857421875
0.52	-0.0	-0.0	-0.0	-0.0	-0.0	-0.0	-17.008804321289062	-9.450420379638672	-745.7745361328125	-0.0	-0.0	-0.0	-0.0	-0.0	-0.0	255805.625	-5979.9375	-8557.740234375
0.5205	-0.0	-0.0	-0.0	-0.0	-0.0	-0.0	-17.31580924987793	-8.927342414855957	-752.6896362304688	-0.0	-0.0	-0.0	-0.0	-0.0	-0.0	257774.78125	-6281.38671875	-8821.3505859375
0.521	-0.0	-0.0	-0.0	-0.0	-0.0	-0.0	-17.99774742126465	-8.241903305053711	-760.6492919921875	-0.0	-0.0	-0.0	-0.0	-0.0	-0.0	260502.28125	-6218.92431640625	-8943.7705078125
0.5215	-0.0	-0.0	-0.0	-0.0	-0.0	-0.0	-18.2530517578125	-8.648433685302734	-767.4212646484375	-0.0	-0.0	-0.0	-0.0	-0.0	-0.0	263566.28125	-6512.9345703125	-9151.7021484375
0.522	-0.0	-0.0	-0.0	-0.0	-0.0	-0.0	-17.997386932373047	-8.026419639587402	-774.7245483398438	-0.0	-0.0	-0.0	-0.0	-0.0	-0.0	266375.65625	-6904.1005859375	-9095.6806640625
0.5225	-0.0	-0.0	-0.0	-0.0	-0.0	-0.0	-17.753238677978516	-8.541460037231445	-783.1470947265625	-0.0	-0.0	-0.0	-0.0	-0.0	-0.0	269045.1875	-7302.89404296875	-8918.9482421875
0.523	-0.0	-0.0	-0.0	-0.0	-0.0	-0.0	-16.958724975585938	-8.490056991577148	-791.1481323242188	-0.0	-0.0	-0.0	-0.0	-0.0	-0.0	271317.46875	-7702.7412109375	-8826.9404296875
0.5235	-0.0	-0.0	-0.0	-0.0	-0.0	-0.0	-16.658557891845703	-8.655525207519531	-796.4298095703125	-0.0	-0.0	-0.0	-0.0	-0.0	-0.0	273802.375	-8205.5654296875	-8704.3349609375
0.524	-0.0	-0.0	-0.0	-0.0	-0.0	-0.0	-15.802104949951172	-9.089444160461426	-801.9708251953125	-0.0	-0.0	-0.0	-0.0	-0.0	-0.0	275497.65625	-8174.306640625	-8412.345703125
0.5245	-0.0	-0.0	-0.0	-0.0	-0.0	-0.0	-14.91517734527588	-9.691956520080566	-806.4630737304688	-0.0	-0.0	-0.0	-0.0	-0.0	-0.0	276739.84375	-8597.2158203125	-8197.7216796875
0.525	-0.0	-0.0	-0.0	-0.0	-0.0	-0.0	-14.379136085510254	-10.474488258361816	-809.3020629882812	-0.0	-0.0	-0.0	-0.0	-0.0	-0.0	278087.8125	-9191.1748046875	-7845.529296875
0.5255	-0.0	-0.0	-0.0	-0.0	-0.0	-0.0	-13.935677528381348	-11.301151275634766	-812.03125	-0.0	-0.0	-0.0	-0.0	-0.0	-0.0	279113.59375	-9464.6787109375	-7644.54931640625
0.526	-0.0	-0.0	-0.0	-0.0	-0.0	-0.0	-13.47169589996338	-11.481819152832031	-814.1567993164062	-0.0	-0.0	-0.0	-0.0	-0.0	-0.0	279344.1875	-9962.033203125	-7629.2763671875
0.5265	-0.0	-0.0	-0.0	-0.0	-0.0	-0.0	-13.112499237060549	-12.68507480621338	-813.5068969726562	-0.0	-0.0	-0.0	-0.0	-0.0	-0.0	279878.625	-10119.58984375	-7251.96923828125
0.527	-0.0	-0.0	-0.0	-0.0	-0.0	-0.0	-13.023597717285156	-13.155728340148926	-815.25244140625	-0.0	-0.0	-0.0	-0.0	-0.0	-0.0	279902.8125	-10236.1435546875	-7191.3017578125
